<?xml version="1.0" encoding="UTF-8"?>
<svg version="1.1" xmlns="http://www.w3.org/2000/svg" width="512" height="512">
<path d="M0 0 C4.71773376 2.19037639 7.80019342 5.29181871 10 10 C10.84114797 13.60827237 11.19387454 17.23408206 11.55078125 20.91796875 C11.79112796 23.08527411 12.03286231 25.25242598 12.27587891 27.41943359 C12.39465393 28.51850037 12.51342896 29.61756714 12.63580322 30.74993896 C13.18994284 35.69503371 13.85890169 40.62222306 14.54296875 45.55078125 C14.73971191 46.97661781 14.73971191 46.97661781 14.94042969 48.43125916 C23.38150403 109.21189462 35.27980486 169.78386836 55 228 C55.36480469 229.08345703 55.72960937 230.16691406 56.10546875 231.28320312 C60.84649062 245.41719477 60.84649062 245.41719477 66.125 259.35546875 C66.45298584 260.16894775 66.78097168 260.98242676 67.11889648 261.82055664 C67.7217874 263.29292076 68.33729664 264.76022208 68.96899414 266.22045898 C71.25602764 271.75435488 71.91094981 276.53725911 70.37109375 282.390625 C70.06300781 283.00421875 69.75492187 283.6178125 69.4375 284.25 C69.14746094 284.87390625 68.85742188 285.4978125 68.55859375 286.140625 C64.21735367 291.31964825 56.5690533 293.50483822 50.42578125 295.84375 C49.02052689 296.38656868 49.02052689 296.38656868 47.58688354 296.94035339 C44.49744361 298.13222632 41.40500054 299.31609361 38.3125 300.5 C36.14018327 301.33648248 33.96806757 302.17348721 31.79614258 303.01098633 C26.04681043 305.22630442 20.29487112 307.43476691 14.54211426 309.64117432 C7.49561961 312.34435022 0.45095664 315.05229705 -6.59364319 317.76040649 C-12.13978205 319.89241307 -17.68651007 322.02283659 -23.23510742 324.1484375 C-28.20999436 326.05536736 -33.18108147 327.97186814 -38.14898682 329.89691162 C-40.06683439 330.63894795 -41.98576158 331.37819932 -43.90570068 332.11480713 C-46.67371791 333.17840549 -49.43692794 334.25366266 -52.19921875 335.33203125 C-53.0183223 335.64428146 -53.83742584 335.95653168 -54.68135071 336.27824402 C-59.69980622 338.2556763 -64.2048252 340.29091804 -67.2890625 344.9453125 C-68.66193073 348.91305254 -68.52837806 352.8708233 -68 357 C-65.81152692 361.45800073 -63.52717302 363.95199316 -59 366 C-54.87459574 366.87173721 -50.87745874 367.11932498 -46.68188477 367.23901367 C-31.95157266 367.70825105 -17.80396531 371.99459547 -6.6875 382.17578125 C4.12431151 393.86354971 10.62361702 407.29750258 10.4375 423.3125 C10.43065186 424.22676758 10.42380371 425.14103516 10.41674805 426.08300781 C10.23836712 433.64849719 9.05516149 440.01533803 6 447 C5.649375 447.80308594 5.29875 448.60617187 4.9375 449.43359375 C-1.74551735 462.82283337 -14.08781971 472.94618757 -28 478 C-35.42472994 480.40460004 -42.67498346 480.38561046 -50.4375 480.375 C-51.10474091 480.37445618 -51.77198181 480.37391235 -52.45944214 480.37335205 C-68.6041333 480.31280795 -81.61976556 477.61523983 -96 470 C-96.98226562 469.51015625 -97.96453125 469.0203125 -98.9765625 468.515625 C-151.69150999 440.41953161 -175.41428211 357.57726552 -191.66357422 304.45068359 C-239.15204754 147.33488605 -239.15204754 147.33488605 -230 90 C-227.32114634 85.27852042 -224.97474889 82.30970484 -220 80 C-213.22579194 78.38608209 -208.05350031 79.57849398 -202.20458984 83.08007812 C-199.45700473 84.84395993 -196.76152249 86.67169976 -194.08740234 88.54492188 C-191.27074131 90.50834875 -188.40319132 92.39070887 -185.53637695 94.27978516 C-182.67820993 96.16786815 -179.83882084 98.08298018 -177 100 C-176.28697562 97.50125969 -175.57886101 95.00132861 -174.875 92.5 C-174.65271729 91.71206055 -174.43043457 90.92412109 -174.20141602 90.11230469 C-172.8671286 85.31829174 -171.62559067 80.5128769 -170.47265625 75.671875 C-170.21693848 74.60646484 -169.9612207 73.54105469 -169.69775391 72.44335938 C-169.19893057 70.34810913 -168.70997831 68.25047909 -168.23193359 66.15039062 C-166.56894553 59.19419107 -164.76477193 54.62653334 -159.5 49.625 C-154.104398 47.11989907 -149.83070253 46.71159223 -144 48 C-139.01023362 50.23504023 -134.55056345 53.41847593 -130.08740234 56.54492188 C-127.27074131 58.50834875 -124.40319132 60.39070887 -121.53637695 62.27978516 C-118.67820993 64.16786815 -115.83882084 66.08298018 -113 68 C-112.28697562 65.50125969 -111.57886101 63.00132861 -110.875 60.5 C-110.65271729 59.71206055 -110.43043457 58.92412109 -110.20141602 58.11230469 C-108.8671286 53.31829174 -107.62559067 48.5128769 -106.47265625 43.671875 C-106.21693848 42.60646484 -105.9612207 41.54105469 -105.69775391 40.44335938 C-105.19893057 38.34810913 -104.70997831 36.25047909 -104.23193359 34.15039062 C-102.56894553 27.19419107 -100.76477193 22.62653334 -95.5 17.625 C-90.0993147 15.11753897 -85.83792958 14.72771569 -80 16 C-75.09308817 18.13942977 -70.74228069 21.30160212 -66.37158203 24.35546875 C-63.70824665 26.20231116 -61.01233049 27.99410303 -58.30859375 29.78125 C-53.19036162 33.16485832 -48.09018463 36.57437108 -43 40 C-36.56323325 31.3320214 -30.5898155 22.41502928 -24.73632812 13.34570312 C-24.06666016 12.32541016 -23.39699219 11.30511719 -22.70703125 10.25390625 C-22.1138208 9.33939697 -21.52061035 8.4248877 -20.90942383 7.48266602 C-15.03090609 -0.16068482 -9.17674911 -0.85281307 0 0 Z M-62.8684082 146.54052734 C-63.61142087 146.81575918 -64.35443354 147.09099102 -65.11996174 147.37456322 C-67.42007313 148.23298295 -69.71079546 149.11294568 -72 150 C-72.68247677 150.26226631 -73.36495354 150.52453262 -74.06811142 150.7947464 C-78.76434945 152.6048362 -83.43703098 154.47113599 -88.10546875 156.3515625 C-89.56890849 156.93886579 -91.03239526 157.52605192 -92.4959259 158.11312866 C-95.52443138 159.3290746 -98.55176827 160.54787627 -101.57836914 161.76855469 C-105.44299148 163.32670127 -109.31142862 164.87513303 -113.18087292 166.42125893 C-116.18799288 167.62450994 -119.1925825 168.83397941 -122.19649696 170.04520798 C-123.6224771 170.61907805 -125.0493323 171.19077904 -126.47710228 171.76018143 C-128.46682965 172.55450282 -130.45286002 173.35746402 -132.43823242 174.16259766 C-133.56388107 174.61527008 -134.68952972 175.0679425 -135.84928894 175.53433228 C-141.7227315 178.26657748 -146.14080679 181.06167563 -149 187 C-149.7971639 191.99447589 -149.57907893 195.79729761 -147.375 200.375 C-143.152366 205.04212179 -139.31731376 207.54821397 -133 208 C-130.24754667 207.2699744 -127.76913517 206.4795553 -125.1315918 205.45947266 C-124.38857913 205.18424082 -123.64556646 204.90900898 -122.88003826 204.62543678 C-120.57992687 203.76701705 -118.28920454 202.88705432 -116 202 C-115.31752323 201.73773369 -114.63504646 201.47546738 -113.93188858 201.2052536 C-109.23565055 199.3951638 -104.56296902 197.52886401 -99.89453125 195.6484375 C-98.43109151 195.06113421 -96.96760474 194.47394808 -95.5040741 193.88687134 C-92.47556862 192.6709254 -89.44823173 191.45212373 -86.42163086 190.23144531 C-82.55700852 188.67329873 -78.68857138 187.12486697 -74.81912708 185.57874107 C-71.81200712 184.37549006 -68.8074175 183.16602059 -65.80350304 181.95479202 C-64.3775229 181.38092195 -62.9506677 180.80922096 -61.52289772 180.23981857 C-59.53317035 179.44549718 -57.54713998 178.64253598 -55.56176758 177.83740234 C-54.43611893 177.38472992 -53.31047028 176.9320575 -52.15071106 176.46566772 C-46.2772685 173.73342252 -41.85919321 170.93832437 -39 165 C-38.2028361 160.00552411 -38.42092107 156.20270239 -40.625 151.625 C-47.48950533 144.03791516 -53.55106134 142.93699842 -62.8684082 146.54052734 Z M-46.8684082 210.54052734 C-47.61142087 210.81575918 -48.35443354 211.09099102 -49.11996174 211.37456322 C-51.42007313 212.23298295 -53.71079546 213.11294568 -56 214 C-56.68247677 214.26226631 -57.36495354 214.52453262 -58.06811142 214.7947464 C-62.76434945 216.6048362 -67.43703098 218.47113599 -72.10546875 220.3515625 C-73.56890849 220.93886579 -75.03239526 221.52605192 -76.4959259 222.11312866 C-79.52443138 223.3290746 -82.55176827 224.54787627 -85.57836914 225.76855469 C-89.44299148 227.32670127 -93.31142862 228.87513303 -97.18087292 230.42125893 C-100.18799288 231.62450994 -103.1925825 232.83397941 -106.19649696 234.04520798 C-107.6224771 234.61907805 -109.0493323 235.19077904 -110.47710228 235.76018143 C-112.46682965 236.55450282 -114.45286002 237.35746402 -116.43823242 238.16259766 C-117.56388107 238.61527008 -118.68952972 239.0679425 -119.84928894 239.53433228 C-125.7227315 242.26657748 -130.14080679 245.06167563 -133 251 C-133.7971639 255.99447589 -133.57907893 259.79729761 -131.375 264.375 C-127.67878775 268.46028722 -124.56637135 271.19529426 -118.93066406 271.53027344 C-110.39170723 271.36438961 -102.51315916 267.32747824 -94.734375 264.140625 C-92.96994768 263.43144878 -91.20498422 262.72360516 -89.43951416 262.01702881 C-85.75382133 260.53783674 -82.0729591 259.04741313 -78.39550781 257.54785156 C-73.69252231 255.6303865 -68.98134545 253.7341615 -64.26678085 251.84537125 C-60.62695671 250.38589153 -56.99018879 248.9189294 -53.35443878 247.44933319 C-51.61835124 246.74781969 -49.88167818 246.04775333 -48.14440155 245.34918976 C-45.71542346 244.3703279 -43.29035752 243.38235805 -40.86621094 242.39160156 C-40.15543396 242.10675903 -39.44465698 241.8219165 -38.71234131 241.52844238 C-32.01903908 238.77103311 -26.25723592 235.76502846 -23 229 C-22.2028361 224.00552411 -22.42092107 220.20270239 -24.625 215.625 C-31.48950533 208.03791516 -37.55106134 206.93699842 -46.8684082 210.54052734 Z " fill="#000000" transform="translate(230,0)"/>
<path d="M0 0 C0.79664063 0.41894531 1.59328125 0.83789062 2.4140625 1.26953125 C9.08284366 5.01684946 14.56007903 9.64711777 20 15 C20.77472656 15.76183594 21.54945313 16.52367187 22.34765625 17.30859375 C39.10275684 34.81092009 43.54899495 55.90716288 43.2734375 79.4453125 C42.77539597 96.78800615 35.49298589 112.16209023 24 125 C22.7625 126.423125 22.7625 126.423125 21.5 127.875 C16.0214072 132.53180388 8.92660176 134.94154133 2.30078125 137.56640625 C0.66339983 138.22327831 -0.97396961 138.88018022 -2.61132812 139.53710938 C-5.15843873 140.5542301 -7.70611545 141.56991395 -10.25415039 142.5847168 C-12.73727778 143.57506128 -15.21830746 144.57052592 -17.69921875 145.56640625 C-18.45764572 145.86648087 -19.21607269 146.16655548 -19.9974823 146.47572327 C-23.90611266 148.04654047 -27.38585515 149.82191934 -31 152 C-32.97325751 152.75971361 -34.9669572 153.46732999 -36.97265625 154.13671875 C-45.95525357 157.26784888 -54.70269137 160.9229964 -63.48144531 164.58081055 C-67.55570778 166.27841991 -71.63308143 167.96849929 -75.7102356 169.65914917 C-77.79786052 170.52490963 -79.88532379 171.39106001 -81.97262573 172.25759888 C-90.69197119 175.87665929 -99.42343856 179.46553165 -108.16027832 183.04211426 C-122.1934907 188.78733352 -136.21708717 194.55571977 -150.23312378 200.3427124 C-152.19456158 201.15254071 -154.15608836 201.96215354 -156.1177063 202.77154541 C-166.22062463 206.94062057 -176.31684237 211.12423333 -186.390625 215.36328125 C-188.0244777 216.04944004 -189.65834773 216.73555755 -191.29223633 217.42163086 C-194.27129824 218.67277295 -197.24727026 219.93087351 -200.22143555 221.19360352 C-226.2484409 232.17488547 -226.2484409 232.17488547 -240.1875 232.1875 C-240.91130859 232.19974609 -241.63511719 232.21199219 -242.38085938 232.22460938 C-244.25539471 232.22984064 -246.1294635 232.12248796 -248 232 C-250 230 -250 230 -250.4375 227.625 C-249.81644911 223.89869466 -248.01917996 223.16911958 -245 221 C-243.18158151 219.97312838 -241.34711756 218.97430377 -239.5 218 C-220.31052496 206.93005683 -207.2485165 188.06451454 -201.02441406 167.02075195 C-194.98393269 143.74465124 -198.66084959 119.44841009 -210.609375 98.8125 C-215.15676083 91.35922372 -220.66483029 85.20956958 -227.0625 79.3125 C-229.94377007 76.50665585 -231.59129511 74.78359763 -231.75 70.6875 C-230.99971429 66.99859524 -230.46029487 65.70395184 -228 63 C-226.00157166 61.88755798 -226.00157166 61.88755798 -223.67944336 61.01147461 C-222.35718246 60.50213127 -222.35718246 60.50213127 -221.00820923 59.98249817 C-220.04514862 59.62604721 -219.08208801 59.26959625 -218.08984375 58.90234375 C-216.57032608 58.32301338 -216.57032608 58.32301338 -215.02011108 57.73197937 C-211.66354808 56.45545343 -208.3006301 55.19661133 -204.9375 53.9375 C-202.572064 53.04137759 -200.20707987 52.14406159 -197.8425293 51.24560547 C-192.95517187 49.39083542 -188.06524236 47.54311228 -183.17285156 45.70166016 C-176.58736504 43.22287077 -170.00719641 40.73034099 -163.4296875 38.23046875 C-162.42565384 37.84887604 -161.42162018 37.46728333 -160.38716125 37.0741272 C-158.37015184 36.3074628 -156.3531687 35.54072927 -154.33621216 34.77392578 C-151.2928974 33.61755156 -148.24893226 32.46290364 -145.20483398 31.30859375 C-125.30709301 23.75942542 -105.45327821 16.09726211 -85.60546875 8.41799927 C-83.3841873 7.55946284 -81.16227134 6.7025661 -78.93969727 5.84738159 C-73.24239735 3.65334084 -67.55965394 1.42915801 -61.89331055 -0.84375 C-60.72916626 -1.30530991 -59.56502197 -1.76686981 -58.36560059 -2.24241638 C-56.16117402 -3.11688736 -53.96077929 -4.00162464 -51.76550293 -4.89881897 C-34.56759899 -11.67723078 -16.14531377 -8.55281491 0 0 Z " fill="#000000" transform="translate(469,280)"/>
<path d="M0 0 C4.66291348 2.16492412 7.94453208 5.253802 10 10 C10.61556021 13.78845369 10.69559776 17.54211505 10.75 21.375 C10.77964844 22.39722656 10.80929687 23.41945313 10.83984375 24.47265625 C10.91019494 26.98184853 10.96306206 29.49013054 11 32 C12.23363281 32.32871094 12.23363281 32.32871094 13.4921875 32.6640625 C23.30513828 35.45157508 34.43347053 39.58458299 40.6015625 48.25 C43.0124708 52.99100402 42.63376096 57.81020189 42 63 C39.84062362 67.47870656 37.07047061 70.18198188 33 73 C28.01380805 74.66206398 23.69960314 74.67984126 18.875 72.75 C15.8587142 70.91399995 12.93771997 68.95847998 10 67 C3.1654724 64.72182413 -7.25133305 64.64036628 -13.8125 67.6875 C-17.90918686 70.61648245 -17.90918686 70.61648245 -20 75 C-20.30428818 80.30050387 -19.55833111 84.34954139 -15.93115234 88.44946289 C-11.40423994 92.08415577 -5.6665406 93.88291766 -0.3125 96 C16.77332179 102.85306757 31.46921844 109.74561972 39.0703125 127.5 C43.6703846 140.71962467 43.00739545 154.28417185 37.375 167.125 C32.31600762 176.30754844 24.33569294 183.3745885 15 188 C13.33929162 188.3618516 11.67289341 188.69947291 10 189 C10.02094727 189.72590332 10.04189453 190.45180664 10.06347656 191.19970703 C10.1469365 194.50799555 10.19875539 197.81606211 10.25 201.125 C10.28351563 202.26710937 10.31703125 203.40921875 10.3515625 204.5859375 C10.42670416 211.04812041 10.44251558 215.13593185 6 220 C2.18069828 223.62833663 -0.88279006 224.31000458 -6 224.5 C-11.11720994 224.31000458 -14.18069828 223.62833663 -18 220 C-23.24411562 213.48028869 -23.15050874 207.11348556 -23.0625 199.125 C-23.05798828 198.34125 -23.05347656 197.5575 -23.04882812 196.75 C-23.03714093 194.83329986 -23.01920908 192.91663952 -23 191 C-24.75957031 190.85304687 -24.75957031 190.85304687 -26.5546875 190.703125 C-30.87033709 190.1596306 -34.24137795 188.74828428 -38.125 186.75 C-39.28257812 186.16734375 -40.44015625 185.5846875 -41.6328125 184.984375 C-46.86415467 181.90140305 -51.44109645 178.70966235 -54 173 C-54.3984375 170.0625 -54.3984375 170.0625 -54.375 167 C-54.38273437 165.989375 -54.39046875 164.97875 -54.3984375 163.9375 C-53.76874185 159.29503794 -51.61595262 156.15029533 -48 153.25 C-43.5068391 149.88012932 -39.49361749 149.41401413 -34 150 C-29.60406975 151.7583721 -25.92724862 154.38183425 -22 157 C-18.37762495 158.20745835 -15.0229405 158.22246029 -11.25 158.25 C-10.5590625 158.270625 -9.868125 158.29125 -9.15625 158.3125 C-3.40807725 158.35571934 1.46510559 157.28140497 5.875 153.3125 C7.50973412 149.9522132 8.11439143 146.70342243 8 143 C6.01740113 137.27249215 2.62300429 134.28381475 -2.76391602 131.6472168 C-3.75061279 131.25187744 -4.73730957 130.85653809 -5.75390625 130.44921875 C-7.4080957 129.77149414 -7.4080957 129.77149414 -9.09570312 129.08007812 C-11.37930314 128.16277851 -13.66315128 127.24609629 -15.94726562 126.33007812 C-30.7132772 120.27815338 -43.08185706 113.694241 -49.96875 98.6640625 C-55.43719671 84.53724184 -55.50380282 70.84754588 -49.375 56.875 C-44.31600762 47.69245156 -36.33569294 40.6254115 -27 36 C-25.33929162 35.6381484 -23.67289341 35.30052709 -22 35 C-22.02094727 34.27409668 -22.04189453 33.54819336 -22.06347656 32.80029297 C-22.1469365 29.49200445 -22.19875539 26.18393789 -22.25 22.875 C-22.28351563 21.73289062 -22.31703125 20.59078125 -22.3515625 19.4140625 C-22.42670416 12.95187959 -22.44251558 8.86406815 -18 4 C-12.72867143 -1.00776214 -6.89190982 -0.92775709 0 0 Z " fill="#000000" transform="translate(406,32)"/>
</svg>
