<svg xmlns="http://www.w3.org/2000/svg" width="32" height="32" viewBox="0 0 512 512">
  <!-- Your ES Logo - Simplified for favicon -->
  <rect width="512" height="512" fill="#ffffff"/>
  
  <!-- Main logo shape - simplified black silhouette -->
  <g fill="#000000">
    <!-- Left E shape -->
    <path d="M50 100 L50 400 L200 400 L200 350 L120 350 L120 275 L180 275 L180 225 L120 225 L120 150 L200 150 L200 100 Z"/>
    
    <!-- Dollar sign in middle -->
    <path d="M240 80 L240 120 C200 125 180 150 180 180 C180 210 200 230 240 235 L240 275 C220 270 210 255 210 240 L170 240 C170 280 200 315 240 320 L240 360 L280 360 L280 320 C320 315 340 290 340 260 C340 230 320 210 280 205 L280 165 C300 170 310 185 310 200 L350 200 C350 160 320 125 280 120 L280 80 Z M240 165 L240 205 C225 200 220 190 220 180 C220 170 225 160 240 165 Z M280 235 L280 275 C295 280 300 290 300 300 C300 310 295 320 280 275 Z"/>
    
    <!-- Right S shape -->
    <path d="M380 100 C340 100 310 130 310 170 C310 200 325 220 350 230 L380 240 C390 245 395 250 395 260 C395 270 385 280 375 280 C365 280 355 270 355 260 L315 260 C315 295 340 320 375 320 C415 320 445 290 445 250 C445 220 430 200 405 190 L375 180 C365 175 360 170 360 160 C360 150 370 140 380 140 C390 140 400 150 400 160 L440 160 C440 125 415 100 380 100 Z"/>
  </g>
</svg>
  
  <!-- Door -->
  <rect x="14" y="19" width="4" height="6" fill="#0D9488" rx="0.5"/>
  
  <!-- Utensils -->
  <g stroke="white" stroke-width="1" fill="none">
    <!-- Fork -->
    <line x1="4" y1="6" x2="4" y2="10"/>
    <line x1="3" y1="6" x2="3" y2="8"/>
    <line x1="5" y1="6" x2="5" y2="8"/>
    
    <!-- Knife -->
    <line x1="28" y1="6" x2="28" y2="10"/>
    <line x1="27" y1="6" x2="29" y2="8"/>
  </g>
  
  <!-- Decorative dots -->
  <circle cx="16" cy="6" r="1" fill="white" opacity="0.7"/>
  <circle cx="16" cy="27" r="1" fill="white" opacity="0.7"/>
</svg>