<svg width="32" height="32" viewBox="0 0 32 32" xmlns="http://www.w3.org/2000/svg">
  <defs>
    <linearGradient id="grad1" x1="0%" y1="0%" x2="100%" y2="100%">
      <stop offset="0%" style="stop-color:#059669;stop-opacity:1" />
      <stop offset="100%" style="stop-color:#0D9488;stop-opacity:1" />
    </linearGradient>
  </defs>
  
  <!-- Background -->
  <rect width="32" height="32" fill="url(#grad1)" rx="4"/>
  
  <!-- Table (simplified) -->
  <circle cx="16" cy="20" r="6" fill="white" opacity="0.9"/>
  <circle cx="16" cy="20" r="4" fill="none" stroke="#059669" stroke-width="1.5"/>
  
  <!-- Fork -->
  <path d="M8 8 L8 16 M6 8 L6 12 M10 8 L10 12" stroke="white" stroke-width="1.5" stroke-linecap="round"/>
  
  <!-- Knife -->
  <path d="M24 8 L24 16 M24 8 L22 10" stroke="white" stroke-width="1.5" stroke-linecap="round"/>
  
  <!-- Door -->
  <rect x="14" y="19" width="4" height="6" fill="#0D9488" rx="0.5"/>
  
  <!-- Utensils -->
  <g stroke="white" stroke-width="1" fill="none">
    <!-- Fork -->
    <line x1="4" y1="6" x2="4" y2="10"/>
    <line x1="3" y1="6" x2="3" y2="8"/>
    <line x1="5" y1="6" x2="5" y2="8"/>
    
    <!-- Knife -->
    <line x1="28" y1="6" x2="28" y2="10"/>
    <line x1="27" y1="6" x2="29" y2="8"/>
  </g>
  
  <!-- Decorative dots -->
  <circle cx="16" cy="6" r="1" fill="white" opacity="0.7"/>
  <circle cx="16" cy="27" r="1" fill="white" opacity="0.7"/>
</svg>